<?xml version="1.0" encoding="UTF-8"?>
<svg preserveAspectRatio="none" xmlns="http://www.w3.org/2000/svg" xml:space="preserve" width="100px" height="60px" viewBox="0 0 100 60" style="shape-rendering:geometricPrecision; text-rendering:geometricPrecision; image-rendering:optimizeQuality; fill-rule:evenodd; clip-rule:evenodd">
 <defs>
  <style type="text/css">
   <![CDATA[
    .ts-logo-path-fore {fill:white}
    .ts-logo-path-back {fill:white;fill-opacity:0.67}
   ]]>
  </style>
 </defs>
 <g id="ts-logo-layer">
  <path class="ts-logo-path-back" d="M46.6669 29.0613l0 30.9404 -13.3336 0 0 -30.9995 -33.3333 -19.3147 0 -3.0201c0,-3.68153 2.98467,-6.66738 6.66619,-6.66738l0 0 60.0017 0 33.3333 19.3738c0,13.5426 0,27.0853 0,40.6279l-13.3336 0 0 -30.9404 -40.0007 0z"/>
  <path class="ts-logo-path-fore" d="M66.6678 60.0017l-13.3336 0 0 -46.6681 -40.0007 0 0 46.6681 -13.3336 0 0 -53.3343c0,-3.68153 2.98467,-6.66738 6.66619,-6.66738l0 0 60.0017 0c0,20.0009 0,40.0007 0,60.0017z"/>
 </g>
</svg>
